<svg xmlns="http://www.w3.org/2000/svg" viewBox="0 0 1100 720" width="1100" height="720" font-family="'Segoe UI',system-ui,sans-serif">
  <defs>
    <linearGradient id="bgGrad" x1="0" y1="0" x2="1" y2="1">
      <stop offset="0%" stop-color="#0f172a"/>
      <stop offset="100%" stop-color="#1e293b"/>
    </linearGradient>
    <filter id="shadow" x="-10%" y="-10%" width="120%" height="120%">
      <feDropShadow dx="0" dy="3" stdDeviation="4" flood-color="#000" flood-opacity="0.4"/>
    </filter>
    <marker id="arrow" markerWidth="10" markerHeight="7" refX="9" refY="3.5" orient="auto">
      <polygon points="0 0, 10 3.5, 0 7" fill="#475569"/>
    </marker>
    <marker id="arrow-amber" markerWidth="10" markerHeight="7" refX="9" refY="3.5" orient="auto">
      <polygon points="0 0, 10 3.5, 0 7" fill="#f59e0b"/>
    </marker>
  </defs>

  <!-- Background -->
  <rect width="1100" height="720" fill="url(#bgGrad)" rx="12"/>

  <!-- Title -->
  <text x="550" y="44" text-anchor="middle" fill="#f1f5f9" font-size="22" font-weight="700">CoinGeckoAnalytical — Data Pipeline Flow</text>
  <text x="550" y="66" text-anchor="middle" fill="#f59e0b" font-size="13">Bronze → Silver → Gold · 22 jobs · 4 external sources</text>
  <line x1="60" y1="78" x2="1040" y2="78" stroke="#334155" stroke-width="1"/>

  <!-- ══════════════════════════════════════════════ -->
  <!-- COLUMN HEADERS -->
  <!-- ══════════════════════════════════════════════ -->
  <text x="100" y="108" text-anchor="middle" fill="#6b7280" font-size="11" font-weight="700" letter-spacing="1">SOURCES</text>
  <text x="300" y="108" text-anchor="middle" fill="#d97706" font-size="11" font-weight="700" letter-spacing="1">BRONZE</text>
  <text x="540" y="108" text-anchor="middle" fill="#64748b" font-size="11" font-weight="700" letter-spacing="1">SILVER</text>
  <text x="770" y="108" text-anchor="middle" fill="#f59e0b" font-size="11" font-weight="700" letter-spacing="1">GOLD / OPS</text>
  <text x="990" y="108" text-anchor="middle" fill="#34d399" font-size="11" font-weight="700" letter-spacing="1">PRODUCT</text>

  <!-- Column separators -->
  <line x1="195" y1="88" x2="195" y2="700" stroke="#1e293b" stroke-width="2" stroke-dasharray="4,4"/>
  <line x1="420" y1="88" x2="420" y2="700" stroke="#1e293b" stroke-width="2" stroke-dasharray="4,4"/>
  <line x1="660" y1="88" x2="660" y2="700" stroke="#1e293b" stroke-width="2" stroke-dasharray="4,4"/>
  <line x1="880" y1="88" x2="880" y2="700" stroke="#1e293b" stroke-width="2" stroke-dasharray="4,4"/>

  <!-- ══════════════════════════════════════════════ -->
  <!-- SOURCES -->
  <!-- ══════════════════════════════════════════════ -->
  <!-- CoinGecko -->
  <rect x="28" y="125" width="142" height="52" rx="8" fill="#1f2937" stroke="#4b5563" stroke-width="1.5" filter="url(#shadow)"/>
  <rect x="28" y="125" width="5" height="52" rx="3" fill="#6b7280"/>
  <text x="105" y="147" text-anchor="middle" fill="#f1f5f9" font-size="12" font-weight="600">CoinGecko API</text>
  <text x="105" y="163" text-anchor="middle" fill="#9ca3af" font-size="10">Prices · Market Cap</text>

  <!-- DefiLlama -->
  <rect x="28" y="195" width="142" height="52" rx="8" fill="#1f2937" stroke="#4b5563" stroke-width="1.5" filter="url(#shadow)"/>
  <rect x="28" y="195" width="5" height="52" rx="3" fill="#6b7280"/>
  <text x="105" y="217" text-anchor="middle" fill="#f1f5f9" font-size="12" font-weight="600">DefiLlama API</text>
  <text x="105" y="233" text-anchor="middle" fill="#9ca3af" font-size="10">TVL · DeFi Protocols</text>

  <!-- GitHub -->
  <rect x="28" y="265" width="142" height="52" rx="8" fill="#1f2937" stroke="#4b5563" stroke-width="1.5" filter="url(#shadow)"/>
  <rect x="28" y="265" width="5" height="52" rx="3" fill="#6b7280"/>
  <text x="105" y="287" text-anchor="middle" fill="#f1f5f9" font-size="12" font-weight="600">GitHub API</text>
  <text x="105" y="303" text-anchor="middle" fill="#9ca3af" font-size="10">Commits · Stars</text>

  <!-- FRED -->
  <rect x="28" y="335" width="142" height="52" rx="8" fill="#1f2937" stroke="#4b5563" stroke-width="1.5" filter="url(#shadow)"/>
  <rect x="28" y="335" width="5" height="52" rx="3" fill="#6b7280"/>
  <text x="105" y="357" text-anchor="middle" fill="#f1f5f9" font-size="12" font-weight="600">FRED API</text>
  <text x="105" y="373" text-anchor="middle" fill="#9ca3af" font-size="10">Fed Rate · CPI · M2</text>

  <!-- ══════════════════════════════════════════════ -->
  <!-- BRONZE TABLES -->
  <!-- ══════════════════════════════════════════════ -->
  <!-- bronze_market_snapshots -->
  <rect x="215" y="115" width="190" height="62" rx="8" fill="#1c1209" stroke="#92400e" stroke-width="1.5" filter="url(#shadow)"/>
  <rect x="215" y="115" width="5" height="62" rx="3" fill="#d97706"/>
  <text x="240" y="137" fill="#fbbf24" font-size="11" font-weight="700">bronze_market_snapshots</text>
  <text x="240" y="153" fill="#92400e" font-size="9.5">MERGE INTO (asset_id, observed_at)</text>
  <text x="240" y="168" fill="#78350f" font-size="9">market_source_ingestion_job · 5 min</text>

  <!-- bronze_defillama_protocols -->
  <rect x="215" y="195" width="190" height="62" rx="8" fill="#1c1209" stroke="#92400e" stroke-width="1.5" filter="url(#shadow)"/>
  <rect x="215" y="195" width="5" height="62" rx="3" fill="#d97706"/>
  <text x="240" y="217" fill="#fbbf24" font-size="11" font-weight="700">bronze_defillama_protocols</text>
  <text x="240" y="233" fill="#92400e" font-size="9.5">TVL · fees · mcap_tvl_ratio</text>
  <text x="240" y="248" fill="#78350f" font-size="9">defillama_ingestion_job · hourly</text>

  <!-- bronze_github_activity -->
  <rect x="215" y="275" width="190" height="62" rx="8" fill="#1c1209" stroke="#92400e" stroke-width="1.5" filter="url(#shadow)"/>
  <rect x="215" y="275" width="5" height="62" rx="3" fill="#d97706"/>
  <text x="240" y="297" fill="#fbbf24" font-size="11" font-weight="700">bronze_github_activity</text>
  <text x="240" y="313" fill="#92400e" font-size="9.5">commits_30d · stars · forks</text>
  <text x="240" y="328" fill="#78350f" font-size="9">github_activity_ingestion_job · daily</text>

  <!-- bronze_fred_macro -->
  <rect x="215" y="355" width="190" height="62" rx="8" fill="#1c1209" stroke="#92400e" stroke-width="1.5" filter="url(#shadow)"/>
  <rect x="215" y="355" width="5" height="62" rx="3" fill="#d97706"/>
  <text x="240" y="377" fill="#fbbf24" font-size="11" font-weight="700">bronze_fred_macro</text>
  <text x="240" y="393" fill="#92400e" font-size="9.5">series_id · value · observation_date</text>
  <text x="240" y="408" fill="#78350f" font-size="9">fred_macro_ingestion_job · daily</text>

  <!-- bronze_ops -->
  <rect x="215" y="435" width="190" height="62" rx="8" fill="#1c1209" stroke="#92400e" stroke-width="1.5" filter="url(#shadow)"/>
  <rect x="215" y="435" width="5" height="62" rx="3" fill="#d97706"/>
  <text x="240" y="457" fill="#fbbf24" font-size="11" font-weight="700">bronze_ops_*</text>
  <text x="240" y="473" fill="#92400e" font-size="9.5">usage_events · bundle_runs · alerts</text>
  <text x="240" y="488" fill="#78350f" font-size="9">ops_*_ingestion_job · on-demand</text>

  <!-- ══════════════════════════════════════════════ -->
  <!-- SILVER TABLES -->
  <!-- ══════════════════════════════════════════════ -->
  <rect x="436" y="115" width="208" height="62" rx="8" fill="#0f172a" stroke="#334155" stroke-width="1.5" filter="url(#shadow)"/>
  <rect x="436" y="115" width="5" height="62" rx="3" fill="#64748b"/>
  <text x="461" y="137" fill="#94a3b8" font-size="11" font-weight="700">silver_market_changes</text>
  <text x="461" y="153" fill="#475569" font-size="9.5">price_change_pct 1h/24h/7d</text>
  <text x="461" y="168" fill="#334155" font-size="9">silver_market_pipeline_job · hourly</text>

  <rect x="436" y="195" width="208" height="62" rx="8" fill="#0f172a" stroke="#334155" stroke-width="1.5" filter="url(#shadow)"/>
  <rect x="436" y="195" width="5" height="62" rx="3" fill="#64748b"/>
  <text x="461" y="217" fill="#94a3b8" font-size="11" font-weight="700">silver_market_dominance</text>
  <text x="461" y="233" fill="#475569" font-size="9.5">BTC/ETH dominance % hourly</text>
  <text x="461" y="248" fill="#334155" font-size="9">silver_market_pipeline_job · hourly</text>

  <rect x="436" y="275" width="208" height="62" rx="8" fill="#0f172a" stroke="#334155" stroke-width="1.5" filter="url(#shadow)"/>
  <rect x="436" y="275" width="5" height="62" rx="3" fill="#64748b"/>
  <text x="461" y="297" fill="#94a3b8" font-size="11" font-weight="700">silver_asset_enriched</text>
  <text x="461" y="313" fill="#475569" font-size="9.5">market + DeFi + GitHub joined</text>
  <text x="461" y="328" fill="#334155" font-size="9">silver_enrichment_pipeline_job · hourly</text>

  <rect x="436" y="355" width="208" height="62" rx="8" fill="#0f172a" stroke="#334155" stroke-width="1.5" filter="url(#shadow)"/>
  <rect x="436" y="355" width="5" height="62" rx="3" fill="#64748b"/>
  <text x="461" y="377" fill="#94a3b8" font-size="11" font-weight="700">silver_macro_context</text>
  <text x="461" y="393" fill="#475569" font-size="9.5">Fed Rate/CPI/M2 change_30d_pct</text>
  <text x="461" y="408" fill="#334155" font-size="9">silver_enrichment_pipeline_job · hourly</text>

  <rect x="436" y="435" width="208" height="62" rx="8" fill="#0f172a" stroke="#334155" stroke-width="1.5" filter="url(#shadow)"/>
  <rect x="436" y="435" width="5" height="62" rx="3" fill="#64748b"/>
  <text x="461" y="457" fill="#94a3b8" font-size="11" font-weight="700">silver_market_features</text>
  <text x="461" y="473" fill="#475569" font-size="9.5">momentum · dominance · vol_to_cap</text>
  <text x="461" y="488" fill="#334155" font-size="9">feature_engineering_job · daily</text>

  <!-- ══════════════════════════════════════════════ -->
  <!-- GOLD / OPS -->
  <!-- ══════════════════════════════════════════════ -->
  <rect x="672" y="115" width="195" height="62" rx="8" fill="#1c1005" stroke="#92400e" stroke-width="1.5" filter="url(#shadow)"/>
  <rect x="672" y="115" width="5" height="62" rx="3" fill="#f59e0b"/>
  <text x="697" y="137" fill="#fcd34d" font-size="11" font-weight="700">gold_market_overview</text>
  <text x="697" y="153" fill="#92400e" font-size="9.5">Genie-ready analytical view</text>
  <text x="697" y="168" fill="#78350f" font-size="9">ops_readiness_refresh_job · hourly</text>

  <rect x="672" y="195" width="195" height="62" rx="8" fill="#1c1005" stroke="#92400e" stroke-width="1.5" filter="url(#shadow)"/>
  <rect x="672" y="195" width="5" height="62" rx="3" fill="#f59e0b"/>
  <text x="697" y="217" fill="#fcd34d" font-size="11" font-weight="700">Genie Metric Views</text>
  <text x="697" y="233" fill="#92400e" font-size="9.5">genie_top_movers · genie_macro</text>
  <text x="697" y="248" fill="#78350f" font-size="9">ops_readiness_refresh_job · hourly</text>

  <rect x="672" y="275" width="195" height="62" rx="8" fill="#1c1005" stroke="#92400e" stroke-width="1.5" filter="url(#shadow)"/>
  <rect x="672" y="275" width="5" height="62" rx="3" fill="#f59e0b"/>
  <text x="697" y="297" fill="#fcd34d" font-size="11" font-weight="700">gold_ml_scores</text>
  <text x="697" y="313" fill="#92400e" font-size="9.5">regime · anomaly · confidence</text>
  <text x="697" y="328" fill="#78350f" font-size="9">score_market_assets_job · daily</text>

  <rect x="672" y="355" width="195" height="62" rx="8" fill="#0f1a1c" stroke="#0e7490" stroke-width="1.5" filter="url(#shadow)"/>
  <rect x="672" y="355" width="5" height="62" rx="3" fill="#06b6d4"/>
  <text x="697" y="377" fill="#67e8f9" font-size="11" font-weight="700">ops_sentinela_alerts</text>
  <text x="697" y="393" fill="#0e7490" font-size="9.5">CRITICAL / WARNING / OK</text>
  <text x="697" y="408" fill="#164e63" font-size="9">sentinela_evaluation_job · 15 min</text>

  <rect x="672" y="435" width="195" height="62" rx="8" fill="#0f1a1c" stroke="#0e7490" stroke-width="1.5" filter="url(#shadow)"/>
  <rect x="672" y="435" width="5" height="62" rx="3" fill="#06b6d4"/>
  <text x="697" y="457" fill="#67e8f9" font-size="11" font-weight="700">model_drift alert</text>
  <text x="697" y="473" fill="#0e7490" font-size="9.5">PSI &gt; 0.2 → Sentinela</text>
  <text x="697" y="488" fill="#164e63" font-size="9">model_drift_monitoring_job · daily</text>

  <!-- ══════════════════════════════════════════════ -->
  <!-- PRODUCT SURFACE -->
  <!-- ══════════════════════════════════════════════ -->
  <rect x="893" y="130" width="178" height="90" rx="8" fill="#052e16" stroke="#16a34a" stroke-width="1.5" filter="url(#shadow)"/>
  <rect x="893" y="130" width="5" height="90" rx="3" fill="#22c55e"/>
  <text x="918" y="153" fill="#86efac" font-size="12" font-weight="700">cga-analytics</text>
  <text x="918" y="170" fill="#16a34a" font-size="10">Genie Panel (NLQ → SQL)</text>
  <text x="918" y="185" fill="#16a34a" font-size="10">Chart Dashboard</text>
  <text x="918" y="200" fill="#16a34a" font-size="10">Copilot Panel</text>

  <rect x="893" y="242" width="178" height="90" rx="8" fill="#0c1a2e" stroke="#2563eb" stroke-width="1.5" filter="url(#shadow)"/>
  <rect x="893" y="242" width="5" height="90" rx="3" fill="#3b82f6"/>
  <text x="918" y="265" fill="#93c5fd" font-size="12" font-weight="700">cga-admin</text>
  <text x="918" y="282" fill="#1d4ed8" font-size="10">Sentinela Monitor</text>
  <text x="918" y="297" fill="#1d4ed8" font-size="10">Pipeline Health</text>
  <text x="918" y="312" fill="#1d4ed8" font-size="10">Cost · Access · Audit</text>

  <rect x="893" y="354" width="178" height="62" rx="8" fill="#1a0533" stroke="#7c3aed" stroke-width="1.5" filter="url(#shadow)"/>
  <rect x="893" y="354" width="5" height="62" rx="3" fill="#a78bfa"/>
  <text x="918" y="376" fill="#c4b5fd" font-size="12" font-weight="700">MLflow Registry</text>
  <text x="918" y="392" fill="#7c3aed" font-size="10">Regime Classifier</text>
  <text x="918" y="408" fill="#7c3aed" font-size="10">Anomaly Detector</text>

  <!-- ══════════════════════════════════════════════ -->
  <!-- ARROWS: Sources → Bronze -->
  <!-- ══════════════════════════════════════════════ -->
  <line x1="170" y1="151" x2="212" y2="146" stroke="#475569" stroke-width="1.5" marker-end="url(#arrow)"/>
  <line x1="170" y1="221" x2="212" y2="226" stroke="#475569" stroke-width="1.5" marker-end="url(#arrow)"/>
  <line x1="170" y1="291" x2="212" y2="306" stroke="#475569" stroke-width="1.5" marker-end="url(#arrow)"/>
  <line x1="170" y1="361" x2="212" y2="386" stroke="#475569" stroke-width="1.5" marker-end="url(#arrow)"/>

  <!-- ARROWS: Bronze → Silver -->
  <line x1="405" y1="146" x2="433" y2="146" stroke="#d97706" stroke-width="1.5" marker-end="url(#arrow-amber)"/>
  <line x1="405" y1="226" x2="433" y2="306" stroke="#d97706" stroke-width="1.5" marker-end="url(#arrow-amber)"/>
  <line x1="405" y1="306" x2="433" y2="306" stroke="#d97706" stroke-width="1.5" marker-end="url(#arrow-amber)"/>
  <line x1="405" y1="386" x2="433" y2="386" stroke="#d97706" stroke-width="1.5" marker-end="url(#arrow-amber)"/>
  <line x1="405" y1="226" x2="433" y2="466" stroke="#d97706" stroke-width="1" stroke-dasharray="3,3" marker-end="url(#arrow-amber)"/>

  <!-- ARROWS: Silver → Gold -->
  <line x1="644" y1="146" x2="669" y2="146" stroke="#64748b" stroke-width="1.5" marker-end="url(#arrow)"/>
  <line x1="644" y1="226" x2="669" y2="226" stroke="#64748b" stroke-width="1.5" marker-end="url(#arrow)"/>
  <line x1="644" y1="306" x2="669" y2="306" stroke="#64748b" stroke-width="1.5" marker-end="url(#arrow)"/>
  <line x1="644" y1="386" x2="669" y2="386" stroke="#64748b" stroke-width="1.5" marker-end="url(#arrow)"/>
  <line x1="644" y1="466" x2="669" y2="306" stroke="#64748b" stroke-width="1" stroke-dasharray="3,3" marker-end="url(#arrow)"/>

  <!-- ARROWS: Gold → Product -->
  <line x1="867" y1="146" x2="890" y2="175" stroke="#f59e0b" stroke-width="1.5" marker-end="url(#arrow-amber)"/>
  <line x1="867" y1="226" x2="890" y2="175" stroke="#f59e0b" stroke-width="1.5" marker-end="url(#arrow-amber)"/>
  <line x1="867" y1="306" x2="890" y2="385" stroke="#a78bfa" stroke-width="1.5" marker-end="url(#arrow)"/>
  <line x1="867" y1="386" x2="890" y2="287" stroke="#06b6d4" stroke-width="1.5" marker-end="url(#arrow)"/>

  <!-- ══════════════════════════════════════════════ -->
  <!-- MLOPS BAND (bottom) -->
  <!-- ══════════════════════════════════════════════ -->
  <rect x="28" y="545" width="1044" height="50" rx="8" fill="#0d0d1f" stroke="#4c1d95" stroke-width="1"/>
  <text x="44" y="563" fill="#a78bfa" font-size="10" font-weight="700">MLOps Pipeline:</text>
  <text x="150" y="563" fill="#7c3aed" font-size="10">silver_market_features</text>
  <text x="288" y="563" fill="#6d28d9" font-size="14">→</text>
  <text x="308" y="563" fill="#7c3aed" font-size="10">train_market_model_job</text>
  <text x="448" y="563" fill="#6d28d9" font-size="14">→</text>
  <text x="468" y="563" fill="#7c3aed" font-size="10">MLflow Registry (cv ≥ 0.60)</text>
  <text x="628" y="563" fill="#6d28d9" font-size="14">→</text>
  <text x="648" y="563" fill="#7c3aed" font-size="10">score_market_assets_job</text>
  <text x="788" y="563" fill="#6d28d9" font-size="14">→</text>
  <text x="808" y="563" fill="#7c3aed" font-size="10">gold_ml_scores</text>
  <text x="918" y="563" fill="#6d28d9" font-size="14">→</text>
  <text x="938" y="563" fill="#7c3aed" font-size="10">drift monitor (PSI)</text>
  <text x="44" y="582" fill="#6d28d9" font-size="9">Weekly retraining (Mon 2am) · cross_val_score ≥ 0.60 validation gate · PSI &gt; 0.2 triggers CRITICAL alert · mlflow.set_registry_uri("databricks-uc")</text>

  <!-- ══════════════════════════════════════════════ -->
  <!-- GOVERNANCE BAND (bottom) -->
  <!-- ══════════════════════════════════════════════ -->
  <rect x="28" y="608" width="1044" height="50" rx="8" fill="#0c1a2e" stroke="#1d4ed8" stroke-width="1"/>
  <text x="44" y="626" fill="#93c5fd" font-size="10" font-weight="700">Governance &amp; Compliance:</text>
  <text x="208" y="626" fill="#1d4ed8" font-size="10">Unity Catalog: cgadev / cgastaging / cgaprod</text>
  <text x="472" y="626" fill="#1e40af" font-size="14">·</text>
  <text x="490" y="626" fill="#1d4ed8" font-size="10">uc_grants_job (all GRANTs automated)</text>
  <text x="696" y="626" fill="#1e40af" font-size="14">·</text>
  <text x="714" y="626" fill="#1d4ed8" font-size="10">rls_migration_job (row filters + column masking)</text>
  <text x="44" y="645" fill="#1e40af" font-size="9">RLS: ops_usage_events (platform_ops only) · cost_usd masked for non-ops users · user_id hashed sha256 · lineage via UC System Tables</text>

  <!-- Legend -->
  <text x="550" y="706" text-anchor="middle" fill="#334155" font-size="10">Solid arrows = primary data flow · Dashed arrows = derived / scheduled flow · All tables in Unity Catalog Delta Lake</text>
</svg>
